<svg width="1378" height="281" viewBox="0 0 1378 281" xmlns="http://www.w3.org/2000/svg"><title>Group 5</title><g fill="#E8EBEE" fill-rule="evenodd"><path d="M1280.946 75.82l-17.986-30.98a7.793 7.793 0 0 0-6.745-3.874h-35.974a7.794 7.794 0 0 0-6.745 3.87l-17.987 30.983a7.705 7.705 0 0 0 0 7.745l17.986 30.982a7.794 7.794 0 0 0 6.745 3.874l20.235-.002 15.738.003c2.882 0 5.4-1.557 6.745-3.87l17.987-30.983a7.704 7.704 0 0 0 0-7.746zm-56.21 27.11l-1.344-2.314 1.344 2.315zm-13.49-23.238l13.49-23.237-13.49 23.237zm40.473-23.235h15.734-15.735zM1280.946 154.642l-17.986-30.982a7.793 7.793 0 0 0-6.745-3.874h-35.974a7.794 7.794 0 0 0-6.745 3.872l-17.987 30.982a7.705 7.705 0 0 0 0 7.746l17.986 30.982a7.794 7.794 0 0 0 6.745 3.873h35.973c2.882 0 5.4-1.556 6.745-3.87l17.987-30.983a7.704 7.704 0 0 0 0-7.745zm-56.21 27.11l-1.344-2.315 1.344 2.314zm-13.49-23.24l13.49-23.236-13.49 23.237zm40.473-23.235h15.734-15.735zM1212.515 114.74l-17.986-30.984a7.793 7.793 0 0 0-6.746-3.873h-35.974a7.794 7.794 0 0 0-6.746 3.872l-17.987 30.98a7.705 7.705 0 0 0 0 7.747l17.986 30.982a7.794 7.794 0 0 0 6.745 3.874l20.236-.003 15.738.003c2.882 0 5.4-1.557 6.745-3.872l17.987-30.982a7.704 7.704 0 0 0 0-7.745zm-56.21 27.108l-1.344-2.315 1.345 2.315zm-13.49-23.24l13.49-23.235-13.49 23.236zm40.472-23.234h15.736-15.736zM1350.483 114.856l-17.987-30.982A7.793 7.793 0 0 0 1325.75 80h-35.972a7.794 7.794 0 0 0-6.746 3.872l-17.987 30.982a7.705 7.705 0 0 0 0 7.745l17.985 30.98a7.794 7.794 0 0 0 6.745 3.875l20.237-.002 15.737.002c2.882 0 5.398-1.557 6.745-3.872l17.987-30.982a7.704 7.704 0 0 0 0-7.744zm-56.21 27.11l-1.344-2.315 1.342 2.315zm-13.49-23.24l13.49-23.236-13.49 23.236zm40.472-23.235l15.735.002h-15.735zM1143.493 155.82l-17.987-30.98a7.793 7.793 0 0 0-6.745-3.874h-35.973a7.794 7.794 0 0 0-6.745 3.87l-17.987 30.983a7.705 7.705 0 0 0 0 7.745l17.985 30.982a7.794 7.794 0 0 0 6.745 3.874l20.236-.002h.002l15.737.003c2.88 0 5.398-1.557 6.745-3.87l17.987-30.983a7.704 7.704 0 0 0 0-7.746zm-56.21 27.11l-1.344-2.314 1.342 2.315zm-13.49-23.238l13.49-23.237-13.49 23.237zm40.472-23.235H1130h-15.735zM1212.515 194.55l-17.986-30.983a7.793 7.793 0 0 0-6.746-3.874h-35.974a7.794 7.794 0 0 0-6.746 3.872l-17.987 30.982a7.705 7.705 0 0 0 0 7.745l17.986 30.982a7.794 7.794 0 0 0 6.745 3.874l20.236-.002 15.738.002c2.882 0 5.4-1.557 6.745-3.872l17.987-30.982a7.704 7.704 0 0 0 0-7.745zm-56.21 27.108l-1.344-2.314 1.345 2.314zm-13.49-23.238l13.49-23.237-13.49 23.237zm40.472-23.236h15.736-15.736zM1212.515 274.856l-17.986-30.982a7.793 7.793 0 0 0-6.746-3.874h-35.974a7.794 7.794 0 0 0-6.746 3.872l-17.987 30.982a7.705 7.705 0 0 0 0 7.745l17.986 30.98a7.794 7.794 0 0 0 6.745 3.875l20.236-.002 15.738.002c2.882 0 5.4-1.557 6.745-3.872l17.987-30.982a7.704 7.704 0 0 0 0-7.744zm-56.21 27.11l-1.344-2.315 1.345 2.315zm-13.49-23.24l13.49-23.236-13.49 23.236zm40.472-23.235l15.736.002h-15.736zM1350.483 194.856l-17.987-30.982a7.793 7.793 0 0 0-6.745-3.874h-35.972a7.794 7.794 0 0 0-6.746 3.872l-17.987 30.982a7.705 7.705 0 0 0 0 7.745l17.985 30.98a7.794 7.794 0 0 0 6.745 3.875l20.237-.002 15.737.002c2.882 0 5.398-1.557 6.745-3.872l17.987-30.982a7.704 7.704 0 0 0 0-7.744zm-56.21 27.11l-1.344-2.315 1.342 2.315zm-13.49-23.24l13.49-23.236-13.49 23.236zm40.472-23.235l15.735.002h-15.735zM1350.483 274.856l-17.987-30.982a7.793 7.793 0 0 0-6.745-3.874h-35.972a7.794 7.794 0 0 0-6.746 3.872l-17.987 30.982a7.705 7.705 0 0 0 0 7.745l17.985 30.98a7.794 7.794 0 0 0 6.745 3.875l20.237-.002 15.737.002c2.882 0 5.398-1.557 6.745-3.872l17.987-30.982a7.704 7.704 0 0 0 0-7.744zm-56.21 27.11l-1.344-2.315 1.342 2.315zm-13.49-23.24l13.49-23.236-13.49 23.236zm40.472-23.235l15.735.002h-15.735zM1074.377 115.045l-17.986-30.982a7.793 7.793 0 0 0-6.744-3.873h-35.974a7.794 7.794 0 0 0-6.746 3.87l-17.987 30.983a7.705 7.705 0 0 0-.002 7.746l17.987 30.98a7.794 7.794 0 0 0 6.745 3.875l20.236-.003 15.738.003c2.882 0 5.4-1.557 6.745-3.872l17.986-30.982a7.704 7.704 0 0 0 0-7.745zm-56.21 27.11l-1.344-2.315 1.344 2.315zm-13.49-23.24l13.49-23.235-13.49 23.236zm40.473-23.234l15.735.002h-15.735zM1005.946 155.82l-17.986-30.98a7.793 7.793 0 0 0-6.745-3.874H945.24a7.794 7.794 0 0 0-6.745 3.87l-17.987 30.983a7.705 7.705 0 0 0 0 7.745l17.986 30.982a7.794 7.794 0 0 0 6.745 3.874l20.235-.002 15.738.003c2.882 0 5.4-1.557 6.745-3.87l17.987-30.983a7.704 7.704 0 0 0 0-7.746zm-56.21 27.11l-1.344-2.314 1.344 2.315zm-13.49-23.238l13.49-23.237-13.49 23.237zm40.473-23.235h15.734-15.735zM868.493 75.82l-17.987-30.98a7.793 7.793 0 0 0-6.745-3.874h-35.973a7.794 7.794 0 0 0-6.745 3.87L783.055 75.82a7.705 7.705 0 0 0 0 7.745l17.985 30.982a7.794 7.794 0 0 0 6.745 3.874l20.236-.002h.002l15.737.003c2.88 0 5.398-1.557 6.745-3.87l17.987-30.983a7.704 7.704 0 0 0 0-7.746zm-56.21 27.11l-1.344-2.314 1.342 2.315zm-13.49-23.238l13.49-23.237-13.49 23.237zm40.472-23.235H855h-15.735zM799.377 35.045L781.39 4.063A7.793 7.793 0 0 0 774.647.19h-35.974a7.794 7.794 0 0 0-6.746 3.87L713.94 35.044a7.705 7.705 0 0 0-.002 7.746l17.987 30.98a7.794 7.794 0 0 0 6.745 3.875l20.236-.003 15.738.003c2.882 0 5.4-1.557 6.745-3.872l17.986-30.982a7.704 7.704 0 0 0 0-7.745zm-56.21 27.11l-1.344-2.315 1.344 2.315zm-13.49-23.24l13.49-23.235-13.49 23.236zm40.473-23.234l15.735.002H770.15zM730.946 75.82L712.96 44.84a7.793 7.793 0 0 0-6.745-3.874H670.24a7.794 7.794 0 0 0-6.745 3.87L645.508 75.82a7.705 7.705 0 0 0 0 7.745l17.986 30.982a7.794 7.794 0 0 0 6.745 3.874l20.235-.002 15.738.003c2.882 0 5.4-1.557 6.745-3.87l17.987-30.983a7.704 7.704 0 0 0 0-7.746zm-56.21 27.11l-1.344-2.314 1.344 2.315zm-13.49-23.238l13.49-23.237-13.49 23.237zm40.473-23.235h15.734-15.735zM936.924 115.42l-17.987-30.98a7.793 7.793 0 0 0-6.745-3.874h-35.974a7.794 7.794 0 0 0-6.745 3.87l-17.987 30.983a7.705 7.705 0 0 0 0 7.745l17.985 30.982a7.794 7.794 0 0 0 6.746 3.874l20.236-.002 15.738.003c2.882 0 5.4-1.557 6.746-3.87l17.987-30.983a7.704 7.704 0 0 0 0-7.746zm-56.21 27.11l-1.344-2.314 1.343 2.315zm-13.49-23.238l13.49-23.237-13.49 23.237zm40.472-23.235h15.735-15.734zM1005.946 75.318L987.96 44.336a7.793 7.793 0 0 0-6.745-3.874H945.24a7.794 7.794 0 0 0-6.745 3.872l-17.987 30.982a7.705 7.705 0 0 0 0 7.745l17.986 30.984a7.794 7.794 0 0 0 6.745 3.873l20.235-.002 15.738.002c2.882 0 5.4-1.557 6.745-3.872l17.987-30.982a7.704 7.704 0 0 0 0-7.745zm-56.21 27.11l-1.344-2.315 1.344 2.314zm-13.49-23.24l13.49-23.236-13.49 23.237zm40.473-23.235h15.734-15.735zM800.062 114.74l-17.987-30.984a7.793 7.793 0 0 0-6.745-3.873h-35.974a7.794 7.794 0 0 0-6.745 3.872l-17.986 30.98a7.705 7.705 0 0 0 0 7.747l17.985 30.982a7.794 7.794 0 0 0 6.744 3.874l20.236-.003 15.738.003c2.882 0 5.4-1.557 6.746-3.872l17.987-30.982a7.704 7.704 0 0 0 .002-7.745zm-56.21 27.108l-1.344-2.315 1.343 2.315zm-13.49-23.24l13.49-23.235-13.49 23.236zm40.472-23.234h15.735-15.736z"/><path d="M799.377 115.045L781.39 84.063a7.793 7.793 0 0 0-6.744-3.873h-35.974a7.794 7.794 0 0 0-6.746 3.87l-17.987 30.983a7.705 7.705 0 0 0-.002 7.746l17.987 30.98a7.794 7.794 0 0 0 6.745 3.875l20.236-.003 15.738.003c2.882 0 5.4-1.557 6.745-3.872l17.986-30.982a7.704 7.704 0 0 0 0-7.745zm-56.21 27.11l-1.344-2.315 1.344 2.315zm-13.49-23.24l13.49-23.235-13.49 23.236zm40.473-23.234l15.735.002H770.15zM730.946 155.82l-17.986-30.98a7.793 7.793 0 0 0-6.745-3.874H670.24a7.794 7.794 0 0 0-6.745 3.87l-17.987 30.983a7.705 7.705 0 0 0 0 7.745l17.986 30.982a7.794 7.794 0 0 0 6.745 3.874l20.235-.002 15.738.003c2.882 0 5.4-1.557 6.745-3.87l17.987-30.983a7.704 7.704 0 0 0 0-7.746zm-56.21 27.11l-1.344-2.314 1.344 2.315zm-13.49-23.238l13.49-23.237-13.49 23.237zm40.473-23.235h15.734-15.735zM593.493 75.82l-17.987-30.98a7.793 7.793 0 0 0-6.745-3.874h-35.973a7.794 7.794 0 0 0-6.745 3.87L508.055 75.82a7.705 7.705 0 0 0 0 7.745l17.985 30.982a7.794 7.794 0 0 0 6.745 3.874l20.236-.002h.002l15.737.003c2.88 0 5.398-1.557 6.745-3.87l17.987-30.983a7.704 7.704 0 0 0 0-7.746zm-56.21 27.11l-1.344-2.314 1.342 2.315zm-13.49-23.238l13.49-23.237-13.49 23.237zm40.472-23.235H580h-15.735zM455.946 75.82L437.96 44.84a7.793 7.793 0 0 0-6.745-3.874H395.24a7.794 7.794 0 0 0-6.745 3.87L370.508 75.82a7.705 7.705 0 0 0 0 7.745l17.986 30.982a7.794 7.794 0 0 0 6.745 3.874l20.235-.002 15.738.003c2.882 0 5.4-1.557 6.745-3.87l17.987-30.983a7.704 7.704 0 0 0 0-7.746zm-56.21 27.11l-1.344-2.314 1.344 2.315zm-13.49-23.238l13.49-23.237-13.49 23.237zm40.473-23.235h15.734-15.735zM455.946 154.642L437.96 123.66a7.793 7.793 0 0 0-6.745-3.874H395.24a7.794 7.794 0 0 0-6.745 3.872l-17.987 30.982a7.705 7.705 0 0 0 0 7.746l17.986 30.982a7.794 7.794 0 0 0 6.745 3.873h35.973c2.882 0 5.4-1.556 6.745-3.87l17.987-30.983a7.704 7.704 0 0 0 0-7.745zm-56.21 27.11l-1.344-2.315 1.344 2.314zm-13.49-23.24l13.49-23.236-13.49 23.237zm40.473-23.235h15.734-15.735zM661.924 115.42l-17.987-30.98a7.793 7.793 0 0 0-6.745-3.874h-35.974a7.794 7.794 0 0 0-6.745 3.87l-17.987 30.983a7.705 7.705 0 0 0 0 7.745l17.985 30.982a7.794 7.794 0 0 0 6.746 3.874l20.236-.002 15.738.003c2.882 0 5.4-1.557 6.746-3.87l17.987-30.983a7.704 7.704 0 0 0 0-7.746zm-56.21 27.11l-1.344-2.314 1.343 2.315zm-13.49-23.238l13.49-23.237-13.49 23.237zm40.472-23.235h15.735-15.734zM524.377 115.42L506.39 84.44a7.793 7.793 0 0 0-6.744-3.874h-35.974a7.794 7.794 0 0 0-6.746 3.87L438.94 115.42a7.705 7.705 0 0 0-.002 7.745l17.987 30.982a7.794 7.794 0 0 0 6.745 3.874l20.236-.002 15.738.003c2.882 0 5.4-1.557 6.745-3.87l17.986-30.983a7.704 7.704 0 0 0 0-7.746zm-56.21 27.11l-1.344-2.314 1.344 2.315zm-13.49-23.238l13.49-23.237-13.49 23.237zm40.473-23.235h15.735-15.735zM387.515 114.74L369.53 83.755a7.793 7.793 0 0 0-6.746-3.873H326.81a7.794 7.794 0 0 0-6.746 3.872l-17.987 30.98a7.705 7.705 0 0 0 0 7.747l17.986 30.982a7.794 7.794 0 0 0 6.745 3.874l20.236-.003 15.738.003c2.882 0 5.4-1.557 6.745-3.872l17.987-30.982a7.704 7.704 0 0 0 0-7.745zm-56.21 27.108l-1.344-2.315 1.345 2.315zm-13.49-23.24l13.49-23.235-13.49 23.236zm40.473-23.234h15.735-15.735zM318.493 155.82l-17.987-30.98a7.793 7.793 0 0 0-6.745-3.874h-35.973a7.794 7.794 0 0 0-6.745 3.87l-17.987 30.983a7.705 7.705 0 0 0 0 7.745l17.985 30.982a7.794 7.794 0 0 0 6.745 3.874l20.236-.002h.002l15.737.003c2.88 0 5.398-1.557 6.745-3.87l17.987-30.983a7.704 7.704 0 0 0 0-7.746zm-56.21 27.11l-1.344-2.314 1.342 2.315zm-13.49-23.238l13.49-23.237-13.49 23.237zm40.472-23.235H305h-15.735zM249.377 115.045L231.39 84.063a7.793 7.793 0 0 0-6.744-3.873h-35.974a7.794 7.794 0 0 0-6.746 3.87l-17.987 30.983a7.705 7.705 0 0 0-.002 7.746l17.987 30.98a7.794 7.794 0 0 0 6.745 3.875l20.236-.003 15.738.003c2.882 0 5.4-1.557 6.745-3.872l17.986-30.982a7.704 7.704 0 0 0 0-7.745zm0 161l-17.986-30.982a7.793 7.793 0 0 0-6.744-3.873h-35.974a7.794 7.794 0 0 0-6.746 3.87l-17.987 30.983a7.705 7.705 0 0 0-.002 7.746l17.987 30.98a7.794 7.794 0 0 0 6.745 3.875l20.236-.003 15.738.003c2.882 0 5.4-1.557 6.745-3.872l17.986-30.982a7.704 7.704 0 0 0 0-7.745zm-56.21-133.89l-1.344-2.315 1.344 2.315zm-13.49-23.24l13.49-23.235-13.49 23.236zm40.473-23.234l15.735.002H220.15zM180.946 155.82l-17.986-30.98a7.793 7.793 0 0 0-6.745-3.874H120.24a7.794 7.794 0 0 0-6.745 3.87L95.508 155.82a7.705 7.705 0 0 0 0 7.745l17.986 30.982a7.794 7.794 0 0 0 6.745 3.874l20.235-.002 15.738.003c2.882 0 5.4-1.557 6.745-3.87l17.987-30.983a7.704 7.704 0 0 0 0-7.746zm-56.21 27.11l-1.344-2.314 1.344 2.315zm-13.49-23.238l13.49-23.237-13.49 23.237zm40.473-23.235h15.734-15.735zM111.924 115.42L93.937 84.44a7.793 7.793 0 0 0-6.745-3.874H51.218a7.794 7.794 0 0 0-6.745 3.87L26.486 115.42a7.705 7.705 0 0 0 0 7.745l17.985 30.982a7.794 7.794 0 0 0 6.746 3.874l20.236-.002 15.738.003c2.882 0 5.4-1.557 6.746-3.87l17.987-30.983a7.704 7.704 0 0 0 0-7.746zm-56.21 27.11l-1.344-2.314 1.343 2.315zm-13.49-23.238l13.49-23.237-13.49 23.237zm40.472-23.235H98.43 82.697zM180.946 75.318L162.96 44.336a7.793 7.793 0 0 0-6.745-3.874H120.24a7.794 7.794 0 0 0-6.745 3.872L95.508 75.316a7.705 7.705 0 0 0 0 7.745l17.986 30.984a7.794 7.794 0 0 0 6.745 3.873l20.235-.002 15.738.002c2.882 0 5.4-1.557 6.745-3.872l17.987-30.982a7.704 7.704 0 0 0 0-7.745zm-56.21 27.11l-1.344-2.315 1.344 2.314zm-13.49-23.24l13.49-23.236-13.49 23.237zm40.473-23.235h15.734-15.735zM1281.515 234.74l-17.986-30.984a7.793 7.793 0 0 0-6.746-3.873h-35.974a7.794 7.794 0 0 0-6.746 3.872l-17.987 30.98a7.705 7.705 0 0 0 0 7.747l17.986 30.982a7.794 7.794 0 0 0 6.745 3.874l20.236-.003 15.738.003c2.882 0 5.4-1.557 6.745-3.872l17.987-30.982a7.704 7.704 0 0 0 0-7.745zm-56.21 27.108l-1.344-2.315 1.345 2.315zm-13.49-23.24l13.49-23.235-13.49 23.236zm40.472-23.234h15.736-15.736zM1143.377 235.045l-17.986-30.982a7.793 7.793 0 0 0-6.744-3.873h-35.974a7.794 7.794 0 0 0-6.746 3.87l-17.987 30.983a7.705 7.705 0 0 0-.002 7.746l17.987 30.98a7.794 7.794 0 0 0 6.745 3.875l20.236-.003 15.738.003c2.882 0 5.4-1.557 6.745-3.872l17.986-30.982a7.704 7.704 0 0 0 0-7.745zm-56.21 27.11l-1.344-2.315 1.344 2.315zm-13.49-23.24l13.49-23.235-13.49 23.236zm40.473-23.234l15.735.002h-15.735zM937.493 195.82l-17.987-30.98a7.793 7.793 0 0 0-6.745-3.874h-35.973a7.794 7.794 0 0 0-6.745 3.87l-17.987 30.983a7.705 7.705 0 0 0 0 7.745l17.985 30.982a7.794 7.794 0 0 0 6.745 3.874l20.236-.002h.002l15.737.003c2.88 0 5.398-1.557 6.745-3.87l17.987-30.983a7.704 7.704 0 0 0 0-7.746zm-56.21 27.11l-1.344-2.314 1.342 2.315zm-13.49-23.238l13.49-23.237-13.49 23.237zm40.472-23.235H924h-15.735zM937.483 275.856l-17.987-30.982A7.793 7.793 0 0 0 912.75 241H876.78a7.794 7.794 0 0 0-6.746 3.872l-17.987 30.982a7.705 7.705 0 0 0 0 7.745l17.985 30.98a7.794 7.794 0 0 0 6.745 3.875l20.237-.002 15.737.002c2.882 0 5.398-1.557 6.745-3.872l17.987-30.982a7.704 7.704 0 0 0 0-7.744zm-56.21 27.11l-1.344-2.315 1.342 2.315zm-13.49-23.24l13.49-23.236-13.49 23.236zm40.472-23.235l15.735.002h-15.735zM868.377 155.045l-17.986-30.982a7.793 7.793 0 0 0-6.744-3.873h-35.974a7.794 7.794 0 0 0-6.746 3.87l-17.987 30.983a7.705 7.705 0 0 0-.002 7.746l17.987 30.98a7.794 7.794 0 0 0 6.745 3.875l20.236-.003 15.738.003c2.882 0 5.4-1.557 6.745-3.872l17.986-30.982a7.704 7.704 0 0 0 0-7.745zm-56.21 27.11l-1.344-2.315 1.344 2.315zm-13.49-23.24l13.49-23.235-13.49 23.236zm40.473-23.234l15.735.002H839.15zM799.946 195.82l-17.986-30.98a7.793 7.793 0 0 0-6.745-3.874H739.24a7.794 7.794 0 0 0-6.745 3.87l-17.987 30.983a7.705 7.705 0 0 0 0 7.745l17.986 30.982a7.794 7.794 0 0 0 6.745 3.874l20.235-.002 15.738.003c2.882 0 5.4-1.557 6.745-3.87l17.987-30.983a7.704 7.704 0 0 0 0-7.746zm-56.21 27.11l-1.344-2.314 1.344 2.315zm-13.49-23.238l13.49-23.237-13.49 23.237zm40.473-23.235h15.734-15.735zM799.377 276.856l-17.986-30.982a7.793 7.793 0 0 0-6.744-3.874h-35.974a7.794 7.794 0 0 0-6.746 3.872l-17.987 30.982a7.705 7.705 0 0 0-.002 7.745l17.987 30.98a7.794 7.794 0 0 0 6.745 3.875l20.236-.002 15.738.002c2.882 0 5.4-1.557 6.745-3.872l17.986-30.982a7.704 7.704 0 0 0 0-7.744zm-56.21 27.11l-1.344-2.315 1.344 2.315zm-13.49-23.24l13.49-23.236-13.49 23.236zm40.473-23.235l15.735.002H770.15zM1005.924 235.42l-17.987-30.98a7.793 7.793 0 0 0-6.745-3.874h-35.974a7.794 7.794 0 0 0-6.745 3.87l-17.987 30.983a7.705 7.705 0 0 0 0 7.745l17.985 30.982a7.794 7.794 0 0 0 6.746 3.874l20.236-.002 15.738.003c2.882 0 5.4-1.557 6.746-3.87l17.987-30.983a7.704 7.704 0 0 0 0-7.746zm-56.21 27.11l-1.344-2.314 1.343 2.315zm-13.49-23.238l13.49-23.237-13.49 23.237zm40.472-23.235h15.735-15.734zM1074.946 195.318l-17.986-30.982a7.793 7.793 0 0 0-6.745-3.874h-35.974a7.794 7.794 0 0 0-6.745 3.872l-17.987 30.982a7.705 7.705 0 0 0 0 7.745l17.986 30.984a7.794 7.794 0 0 0 6.745 3.873l20.235-.002 15.738.002c2.882 0 5.4-1.557 6.745-3.872l17.987-30.982a7.704 7.704 0 0 0 0-7.745zm-56.21 27.11l-1.344-2.315 1.344 2.314zm-13.49-23.24l13.49-23.236-13.49 23.237zm40.473-23.235h15.734-15.735zM1074.946 275.856l-17.986-30.982a7.793 7.793 0 0 0-6.745-3.874h-35.974a7.794 7.794 0 0 0-6.745 3.872l-17.987 30.982a7.705 7.705 0 0 0 0 7.745l17.986 30.98a7.794 7.794 0 0 0 6.745 3.875l20.235-.002 15.738.002c2.882 0 5.4-1.557 6.745-3.872l17.987-30.982a7.704 7.704 0 0 0 0-7.744zm-56.21 27.11l-1.344-2.315 1.344 2.315zm-13.49-23.24l13.49-23.236-13.49 23.236zm40.473-23.235l15.734.002h-15.735zM869.062 234.74l-17.987-30.984a7.793 7.793 0 0 0-6.745-3.873h-35.974a7.794 7.794 0 0 0-6.745 3.872l-17.986 30.98a7.705 7.705 0 0 0 0 7.747l17.985 30.982a7.794 7.794 0 0 0 6.744 3.874l20.236-.003 15.738.003c2.882 0 5.4-1.557 6.746-3.872l17.987-30.982a7.704 7.704 0 0 0 .002-7.745zm-56.21 27.108l-1.344-2.315 1.343 2.315zm-13.49-23.24l13.49-23.235-13.49 23.236zm40.472-23.234h15.735-15.736z"/><path d="M868.377 235.045l-17.986-30.982a7.793 7.793 0 0 0-6.744-3.873h-35.974a7.794 7.794 0 0 0-6.746 3.87l-17.987 30.983a7.705 7.705 0 0 0-.002 7.746l17.987 30.98a7.794 7.794 0 0 0 6.745 3.875l20.236-.003 15.738.003c2.882 0 5.4-1.557 6.745-3.872l17.986-30.982a7.704 7.704 0 0 0 0-7.745zm-56.21 27.11l-1.344-2.315 1.344 2.315zm-13.49-23.24l13.49-23.235-13.49 23.236zm40.473-23.234l15.735.002H839.15zM662.493 195.82l-17.987-30.98a7.793 7.793 0 0 0-6.745-3.874h-35.973a7.794 7.794 0 0 0-6.745 3.87l-17.987 30.983a7.705 7.705 0 0 0 0 7.745l17.985 30.982a7.794 7.794 0 0 0 6.745 3.874l20.236-.002h.002l15.737.003c2.88 0 5.398-1.557 6.745-3.87l17.987-30.983a7.704 7.704 0 0 0 0-7.746zm-56.21 27.11l-1.344-2.314 1.342 2.315zm-13.49-23.238l13.49-23.237-13.49 23.237zm40.472-23.235H649h-15.735zM661.924 275.856l-17.987-30.982a7.793 7.793 0 0 0-6.745-3.874h-35.974a7.794 7.794 0 0 0-6.745 3.872l-17.987 30.982a7.705 7.705 0 0 0 0 7.745l17.985 30.98a7.794 7.794 0 0 0 6.746 3.875l20.236-.002 15.738.002c2.882 0 5.4-1.557 6.746-3.872l17.987-30.982a7.704 7.704 0 0 0 0-7.744zm-56.21 27.11l-1.344-2.315 1.343 2.315zm-13.49-23.24l13.49-23.236-13.49 23.236zm40.472-23.235l15.735.002h-15.734zM593.377 155.966l-17.986-30.982a7.793 7.793 0 0 0-6.744-3.874h-35.974a7.794 7.794 0 0 0-6.746 3.872l-17.987 30.982a7.705 7.705 0 0 0-.002 7.746l17.987 30.982a7.794 7.794 0 0 0 6.745 3.874l20.236-.003 15.738.003c2.882 0 5.4-1.558 6.745-3.872l17.986-30.982a7.704 7.704 0 0 0 0-7.746zm-56.21 27.11l-1.344-2.315 1.344 2.316zm-13.49-23.24l13.49-23.236-13.49 23.237zm40.473-23.234h15.735-15.735zM524.946 195.82l-17.986-30.98a7.793 7.793 0 0 0-6.745-3.874H464.24a7.794 7.794 0 0 0-6.745 3.87l-17.987 30.983a7.705 7.705 0 0 0 0 7.745l17.986 30.982a7.794 7.794 0 0 0 6.745 3.874l20.235-.002 15.738.003c2.882 0 5.4-1.557 6.745-3.87l17.987-30.983a7.704 7.704 0 0 0 0-7.746zm-56.21 27.11l-1.344-2.314 1.344 2.315zm-13.49-23.238l13.49-23.237-13.49 23.237zm40.473-23.235h15.734-15.735zM524.483 275.856l-17.987-30.982A7.793 7.793 0 0 0 499.75 241H463.78a7.794 7.794 0 0 0-6.746 3.872l-17.987 30.982a7.705 7.705 0 0 0 0 7.745l17.985 30.98a7.794 7.794 0 0 0 6.745 3.875l20.237-.002 15.737.002c2.882 0 5.398-1.557 6.745-3.872l17.987-30.982a7.704 7.704 0 0 0 0-7.744zm-56.21 27.11l-1.344-2.315 1.342 2.315zm-13.49-23.24l13.49-23.236-13.49 23.236zm40.472-23.235l15.735.002h-15.735zM730.924 235.42l-17.987-30.98a7.793 7.793 0 0 0-6.745-3.874h-35.974a7.794 7.794 0 0 0-6.745 3.87l-17.987 30.983a7.705 7.705 0 0 0 0 7.745l17.985 30.982a7.794 7.794 0 0 0 6.746 3.874l20.236-.002 15.738.003c2.882 0 5.4-1.557 6.746-3.87l17.987-30.983a7.704 7.704 0 0 0 0-7.746zm-56.21 27.11l-1.344-2.314 1.343 2.315zm-13.49-23.238l13.49-23.237-13.49 23.237zm40.472-23.235h15.735-15.734zM593.377 235.42l-17.986-30.98a7.793 7.793 0 0 0-6.744-3.874h-35.974a7.794 7.794 0 0 0-6.746 3.87L507.94 235.42a7.705 7.705 0 0 0-.002 7.745l17.987 30.982a7.794 7.794 0 0 0 6.745 3.874l20.236-.002 15.738.003c2.882 0 5.4-1.557 6.745-3.87l17.986-30.983a7.704 7.704 0 0 0 0-7.746zm-56.21 27.11l-1.344-2.314 1.344 2.315zm-13.49-23.238l13.49-23.237-13.49 23.237zm40.473-23.235h15.735-15.735zM387.493 195.366l-17.987-30.982a7.793 7.793 0 0 0-6.745-3.874h-35.973a7.794 7.794 0 0 0-6.745 3.872l-17.987 30.982a7.705 7.705 0 0 0 0 7.746l17.985 30.982a7.794 7.794 0 0 0 6.745 3.874l20.236-.003h.002l15.737.003c2.88 0 5.398-1.558 6.745-3.872l17.987-30.982a7.704 7.704 0 0 0 0-7.746zm-56.21 27.11l-1.344-2.315 1.342 2.316zm-13.49-23.24L331.282 176l-13.49 23.237zm40.472-23.234H374h-15.735zM387.483 275.856l-17.987-30.982A7.793 7.793 0 0 0 362.75 241H326.78a7.794 7.794 0 0 0-6.746 3.872l-17.987 30.982a7.705 7.705 0 0 0 0 7.745l17.985 30.98a7.794 7.794 0 0 0 6.745 3.875l20.237-.002 15.737.002c2.882 0 5.398-1.557 6.745-3.872l17.987-30.982a7.704 7.704 0 0 0 0-7.744zm-56.21 27.11l-1.344-2.315 1.342 2.315zm-13.49-23.24l13.49-23.236-13.49 23.236zm40.472-23.235l15.735.002h-15.735zM456.515 234.74l-17.986-30.984a7.793 7.793 0 0 0-6.746-3.873H395.81a7.794 7.794 0 0 0-6.746 3.872l-17.987 30.98a7.705 7.705 0 0 0 0 7.747l17.986 30.982a7.794 7.794 0 0 0 6.745 3.874l20.236-.003 15.738.003c2.882 0 5.4-1.557 6.745-3.872l17.987-30.982a7.704 7.704 0 0 0 0-7.745zm-56.21 27.108l-1.344-2.315 1.345 2.315zm-13.49-23.24l13.49-23.235-13.49 23.236zm40.473-23.234h15.735-15.735zM318.377 235.045l-17.986-30.982a7.793 7.793 0 0 0-6.744-3.873h-35.974a7.794 7.794 0 0 0-6.746 3.87l-17.987 30.983a7.705 7.705 0 0 0-.002 7.746l17.987 30.98a7.794 7.794 0 0 0 6.745 3.875l20.236-.003 15.738.003c2.882 0 5.4-1.557 6.745-3.872l17.986-30.982a7.704 7.704 0 0 0 0-7.745zm0 81.125l-17.986-30.982a7.793 7.793 0 0 0-6.744-3.874h-35.974a7.794 7.794 0 0 0-6.746 3.872l-17.987 30.982a7.705 7.705 0 0 0-.002 7.746l17.987 30.982a7.794 7.794 0 0 0 6.745 3.873l20.236-.003 15.738.002c2.882 0 5.4-1.558 6.745-3.872l17.986-30.982a7.704 7.704 0 0 0 0-7.746zm-56.21-54.015l-1.344-2.315 1.344 2.315zm-13.49-23.24l13.49-23.235-13.49 23.236zm40.473-23.234l15.735.002H289.15zM112.493 195.82l-17.987-30.98a7.793 7.793 0 0 0-6.745-3.874H51.788a7.794 7.794 0 0 0-6.745 3.87L27.055 195.82a7.705 7.705 0 0 0 0 7.745l17.985 30.982a7.794 7.794 0 0 0 6.745 3.874l20.236-.002h.002l15.737.003c2.88 0 5.398-1.557 6.745-3.87l17.987-30.983a7.704 7.704 0 0 0 0-7.746zm-56.21 27.11l-1.344-2.314 1.342 2.315zm-13.49-23.238l13.49-23.237-13.49 23.237zm40.472-23.235H99 83.265zM111.924 275.856l-17.987-30.982A7.793 7.793 0 0 0 87.192 241H51.218a7.794 7.794 0 0 0-6.745 3.872l-17.987 30.982a7.705 7.705 0 0 0 0 7.745l17.985 30.98a7.794 7.794 0 0 0 6.746 3.875l20.236-.002 15.738.002c2.882 0 5.4-1.557 6.746-3.872l17.987-30.982a7.704 7.704 0 0 0 0-7.744zm-56.21 27.11l-1.344-2.315 1.343 2.315zm-13.49-23.24l13.49-23.236-13.49 23.236zm40.472-23.235l15.735.002H82.697zM180.924 235.42l-17.987-30.98a7.793 7.793 0 0 0-6.745-3.874h-35.974a7.794 7.794 0 0 0-6.745 3.87L95.486 235.42a7.705 7.705 0 0 0 0 7.745l17.985 30.982a7.794 7.794 0 0 0 6.746 3.874l20.236-.002 15.738.003c2.882 0 5.4-1.557 6.746-3.87l17.987-30.983a7.704 7.704 0 0 0 0-7.746zm-56.21 27.11l-1.344-2.314 1.343 2.315zm-13.49-23.238l13.49-23.237-13.49 23.237zm40.472-23.235h15.735-15.734zM249.946 195.318l-17.986-30.982a7.793 7.793 0 0 0-6.745-3.874H189.24a7.794 7.794 0 0 0-6.745 3.872l-17.987 30.982a7.705 7.705 0 0 0 0 7.745l17.986 30.984a7.794 7.794 0 0 0 6.745 3.873l20.235-.002 15.738.002c2.882 0 5.4-1.557 6.745-3.872l17.987-30.982a7.704 7.704 0 0 0 0-7.745zm-56.21 27.11l-1.344-2.315 1.344 2.314zm-13.49-23.24l13.49-23.236-13.49 23.237zm40.473-23.235h15.734-15.735zM1378 42h-18.222a7.794 7.794 0 0 0-6.746 3.872l-17.987 30.982a7.705 7.705 0 0 0 0 7.745l17.985 30.98a7.794 7.794 0 0 0 6.745 3.875l18.225-.002V42zM1378 121h-18.222a7.794 7.794 0 0 0-6.746 3.872l-17.987 30.982a7.705 7.705 0 0 0 0 7.745l17.985 30.98a7.794 7.794 0 0 0 6.745 3.875l18.225-.002V121zM1378 200h-18.222a7.794 7.794 0 0 0-6.746 3.872l-17.987 30.982a7.705 7.705 0 0 0 0 7.745l17.985 30.98a7.794 7.794 0 0 0 6.745 3.875l18.225-.002V200z"/><g><path d="M0 42h18.222c2.883 0 5.4 1.557 6.746 3.872l17.987 30.982a7.705 7.705 0 0 1 0 7.745L24.97 115.58a7.794 7.794 0 0 1-6.745 3.875L0 119.453V42zM0 121h18.222c2.883 0 5.4 1.557 6.746 3.872l17.987 30.982a7.705 7.705 0 0 1 0 7.745L24.97 194.58a7.794 7.794 0 0 1-6.745 3.875L0 198.453V121zM0 200h18.222c2.883 0 5.4 1.557 6.746 3.872l17.987 30.982a7.705 7.705 0 0 1 0 7.745L24.97 273.58a7.794 7.794 0 0 1-6.745 3.875L0 277.453V200z"/></g></g></svg>