<?xml version="1.0" standalone="no"?>
<!DOCTYPE svg PUBLIC "-//W3C//DTD SVG 20010904//EN"
 "http://www.w3.org/TR/2001/REC-SVG-20010904/DTD/svg10.dtd">
<svg version="1.0" xmlns="http://www.w3.org/2000/svg"
 width="2103.000000pt" height="2103.000000pt" viewBox="0 0 2103.000000 2103.000000"
 preserveAspectRatio="xMidYMid meet">
<metadata>
Created by potrace 1.11, written by Peter Selinger 2001-2013
</metadata>
<g transform="translate(0.000000,2103.000000) scale(0.100000,-0.100000)"
fill="#000000" stroke="none">
<path d="M7815 21000 c-11 -15 -83 -111 -161 -212 -256 -334 -493 -677 -717
-1040 -113 -183 -267 -444 -267 -452 0 -2 -22 -42 -49 -88 -168 -287 -463
-895 -627 -1293 -41 -99 -83 -199 -94 -223 -11 -23 -20 -48 -20 -55 -1 -6 -9
-30 -20 -52 -11 -22 -19 -47 -20 -55 0 -9 -4 -20 -9 -25 -19 -22 -219 -605
-301 -880 -75 -255 -211 -767 -234 -885 -5 -25 -13 -65 -36 -170 -6 -30 -13
-66 -15 -80 -2 -14 -11 -54 -19 -90 -8 -36 -17 -81 -20 -100 -3 -19 -8 -47
-11 -62 -3 -16 -7 -40 -10 -55 -3 -16 -8 -44 -11 -63 -3 -19 -14 -84 -25 -145
-10 -60 -21 -130 -24 -155 -3 -25 -7 -52 -10 -60 -2 -8 -7 -39 -10 -69 -4 -30
-8 -61 -10 -70 -1 -9 -6 -43 -9 -76 -4 -33 -8 -71 -11 -85 -2 -14 -7 -52 -10
-85 -6 -58 -12 -114 -20 -185 -8 -69 -23 -244 -30 -355 -3 -44 -7 -109 -10
-145 -16 -215 -19 -344 -20 -785 0 -430 6 -690 19 -845 2 -25 7 -88 11 -140 3
-52 8 -113 10 -135 2 -22 7 -71 10 -110 8 -91 19 -201 30 -287 3 -24 7 -59 9
-78 7 -65 39 -293 61 -440 5 -34 34 -200 39 -227 3 -11 8 -43 12 -70 5 -26 9
-50 9 -53 1 -3 5 -23 9 -45 4 -22 14 -74 23 -115 8 -41 16 -84 19 -95 2 -11 8
-40 14 -65 5 -25 12 -56 14 -70 18 -109 168 -694 235 -917 17 -56 31 -107 31
-114 0 -6 6 -25 13 -42 8 -18 51 -147 97 -287 134 -406 313 -869 477 -1230 14
-30 43 -95 66 -145 52 -114 311 -632 353 -705 17 -30 47 -84 66 -120 193 -359
505 -856 777 -1238 164 -232 596 -789 660 -853 9 -9 34 -38 56 -65 22 -26 47
-55 55 -64 8 -8 38 -42 65 -75 28 -32 57 -66 65 -75 8 -9 62 -68 120 -131 189
-207 714 -725 887 -877 100 -87 159 -139 173 -152 8 -8 69 -60 135 -115 66
-54 122 -102 125 -105 20 -22 484 -381 611 -472 176 -125 268 -190 394 -274
149 -100 422 -276 487 -313 18 -10 85 -50 148 -88 63 -38 140 -83 170 -100 30
-16 100 -55 155 -86 195 -108 293 -159 562 -292 150 -74 274 -135 277 -135 2
0 46 -20 98 -44 51 -24 165 -74 253 -111 88 -36 174 -73 190 -80 37 -16 309
-122 350 -137 17 -5 39 -14 50 -19 78 -34 588 -206 787 -265 169 -50 457 -130
498 -139 8 -2 69 -17 135 -34 66 -16 131 -32 145 -35 14 -3 34 -7 45 -10 114
-27 545 -117 625 -130 75 -12 117 -19 135 -22 11 -3 36 -7 55 -10 19 -3 54 -9
78 -14 23 -4 42 -5 42 -1 0 3 -24 17 -52 31 -380 183 -948 523 -1288 768 -247
178 -589 441 -711 546 -43 37 -74 63 -159 135 -36 29 -69 59 -75 65 -5 6 -28
26 -50 45 -48 41 -179 159 -289 261 -119 109 -636 628 -746 749 -52 57 -106
116 -120 131 -55 60 -197 221 -295 335 -43 50 -89 104 -104 120 -22 25 -177
214 -218 265 -6 8 -27 33 -45 56 -18 22 -45 56 -60 75 -15 19 -57 72 -94 119
-306 389 -827 1124 -1050 1482 -81 132 -210 337 -230 368 -27 43 -159 262
-187 310 -10 19 -52 91 -92 160 -40 69 -104 181 -142 250 -39 69 -82 148 -98
175 -35 63 -70 128 -127 235 -25 47 -66 123 -91 170 -56 106 -308 610 -372
745 -44 93 -76 161 -138 295 -53 116 -217 482 -217 486 0 2 -11 27 -24 56 -13
29 -58 136 -100 238 -80 193 -84 202 -110 262 -9 20 -16 39 -16 42 0 3 -9 25
-19 49 -18 39 -151 381 -184 472 -8 22 -40 110 -72 195 -156 426 -320 920
-456 1380 -50 168 -97 328 -106 355 -8 28 -16 57 -18 65 -2 8 -30 116 -63 240
-33 124 -72 275 -87 335 -46 188 -104 435 -131 555 -29 132 -24 110 -65 305
-17 82 -33 159 -35 170 -2 11 -7 34 -9 50 -3 17 -14 75 -25 130 -28 140 -29
145 -35 190 -3 22 -8 47 -10 55 -2 8 -7 31 -10 50 -7 42 -22 134 -30 175 -3
17 -8 50 -11 74 -3 25 -7 47 -9 50 -2 3 -6 30 -10 60 -4 30 -8 62 -10 71 -2 9
-6 41 -10 70 -4 29 -8 60 -10 69 -4 25 -14 92 -20 141 -3 25 -8 52 -10 60 -2
8 -7 49 -10 90 -4 41 -9 78 -11 81 -2 3 -5 28 -8 55 -6 59 -15 138 -21 179 -2
17 -7 62 -10 100 -3 39 -8 84 -10 100 -2 17 -7 56 -10 88 -3 31 -8 83 -11 115
-3 31 -7 82 -10 112 -2 30 -6 84 -9 120 -3 36 -8 88 -10 115 -2 28 -7 95 -10
150 -3 55 -8 132 -10 170 -27 429 -27 1447 0 1797 2 29 7 100 10 158 7 110 9
132 19 245 7 86 18 185 31 305 2 19 7 64 11 100 3 36 7 67 9 70 1 3 6 36 10
73 3 37 8 76 10 86 2 10 6 42 10 71 4 29 8 61 10 71 2 9 7 39 11 66 3 26 8 55
9 63 2 8 6 35 10 60 4 25 9 54 11 65 6 32 43 237 49 270 3 17 8 44 12 60 4 17
8 35 9 40 1 6 7 36 13 67 7 32 12 59 11 60 -1 2 3 15 8 29 6 14 13 42 16 63
10 64 113 454 161 611 25 83 47 157 49 165 14 50 163 474 176 498 13 26 41
104 38 108 -2 1 -12 -10 -23 -26z"/>
<path d="M10078 15585 c-2 -1 -40 -6 -86 -9 -46 -4 -89 -9 -95 -12 -7 -2 -25
-6 -42 -8 -107 -13 -334 -90 -476 -162 -167 -83 -384 -245 -505 -375 -32 -35
-120 -144 -172 -214 -109 -146 -243 -462 -278 -655 -4 -25 -8 -47 -9 -50 -1
-3 -5 -32 -9 -65 -4 -33 -10 -71 -12 -85 -9 -49 -5 -296 6 -370 5 -41 13 -93
16 -114 19 -133 99 -368 171 -506 186 -352 461 -621 808 -791 107 -52 288
-120 355 -133 14 -2 57 -11 95 -20 193 -41 496 -41 687 0 40 8 83 17 94 20 66
13 292 93 344 123 8 4 47 25 85 46 309 168 580 447 739 762 134 266 194 518
193 818 0 180 -17 317 -61 487 -27 102 -113 307 -178 419 -177 309 -475 579
-812 734 -73 34 -255 99 -306 109 -42 8 -71 15 -88 20 -9 3 -41 8 -71 11 -30
4 -63 9 -75 11 -23 5 -313 13 -318 9z"/>
<path d="M13990 15574 c-122 -15 -128 -16 -251 -48 -583 -152 -1064 -607
-1249 -1181 -17 -55 -34 -111 -36 -125 -3 -14 -9 -41 -14 -60 -9 -35 -13 -61
-27 -162 -4 -29 -8 -123 -8 -208 0 -142 3 -187 20 -305 10 -68 45 -207 72
-280 14 -38 28 -79 31 -90 11 -40 105 -221 149 -289 249 -386 612 -656 1039
-776 42 -12 89 -24 103 -27 14 -2 44 -8 66 -13 131 -29 445 -32 595 -5 52 9
109 19 125 22 62 10 300 95 383 137 304 151 540 360 725 641 219 332 322 748
283 1149 -7 75 -9 89 -21 146 -2 14 -6 36 -9 50 -8 47 -37 155 -57 210 -11 30
-22 63 -24 74 -7 31 -99 217 -145 291 -144 236 -383 473 -612 606 -225 132
-481 219 -718 245 -111 12 -310 11 -420 -2z"/>
</g>
</svg>
