<?xml version="1.0" encoding="utf-8"?>
<!-- Generator: Adobe Illustrator 24.0.0, SVG Export Plug-In . SVG Version: 6.00 Build 0)  -->
<svg version="1.1" id="Layer_1" xmlns="http://www.w3.org/2000/svg" xmlns:xlink="http://www.w3.org/1999/xlink" x="0px" y="0px"
	 viewBox="0 0 180 180" style="enable-background:new 0 0 180 180;" xml:space="preserve">
<style type="text/css">
	.st0{fill:#2D3748;}
	.st1{opacity:0.15;enable-background:new    ;}
	.st2{fill:#00A99D;}
	.st3{fill:#FFFFFF;}
</style>
<rect class="st0" width="180" height="180"/>
<polyline class="st1" points="129,48.4 99.1,48.4 99.1,78 "/>
<path class="st1" d="M61.8,56.4v13.4c0,5.4,2.7,8.1,8.1,8.1h11.9V48.4H69.9C64.5,48.4,61.8,51.1,61.8,56.4z"/>
<path class="st1" d="M110.1,131.6c5.4,0,8.1-2.6,8.1-7.8v-20.4c0-5.4-2.7-8.1-8.1-8.1H99.2v36.2h10.9V131.6z"/>
<path class="st1" d="M110.1,149H99.2H81.7H51.1v-17.4h30.7V95.4H69.9c-17,0-25.5-8.5-25.5-25.5V56.4c0-2.9,0.3-5.6,0.8-8.1
	c1-4.6,2.8-8.2,5.6-11l-0.1-0.1L0,86v85.1v8.9h8.9h83.7l32.1-34C120.8,148,116,149,110.1,149z"/>
<g>
	<path class="st2" d="M69.9,31c-14.1,0-22.3,5.8-24.7,17.4h24.7h11.9v29.5v17.4v36.2h17.4V95.4V77.9V48.4h29.7V31H69.9z"/>
	<g>
		<path class="st3" d="M81.7,95.4V77.9H69.9c-5.4,0-8.1-2.7-8.1-8.1V56.4c0-5.4,2.7-8.1,8.1-8.1H45.1c-0.5,2.4-0.8,5.1-0.8,8.1v13.4
			c0,17,8.5,25.5,25.5,25.5L81.7,95.4L81.7,95.4z"/>
		<path class="st3" d="M110.1,77.9H99.2v17.4h10.9c5.4,0,8.1,2.7,8.1,8.1v20.4c0,5.2-2.7,7.8-8.1,7.8H99.2H81.7H51.1V149h30.7h17.4
			h10.9c17,0,25.5-8.4,25.5-25.2v-20.4C135.6,86.4,127.1,77.9,110.1,77.9z"/>
	</g>
</g>
</svg>
